<?xml version="1.0" standalone="no"?>
<!DOCTYPE svg PUBLIC "-//W3C//DTD SVG 20010904//EN"
 "http://www.w3.org/TR/2001/REC-SVG-20010904/DTD/svg10.dtd">
<svg version="1.0" xmlns="http://www.w3.org/2000/svg"
 width="986.000000pt" height="825.000000pt" viewBox="0 0 986.000000 825.000000"
 preserveAspectRatio="xMidYMid meet">

<g transform="translate(0.000000,825.000000) scale(0.100000,-0.100000)"
fill="#000000" stroke="none">
<path d="M2705 6426 c-67 -21 -100 -43 -152 -100 -96 -105 -88 69 -91 -1776
-2 -894 0 -1698 3 -1787 l7 -162 47 -8 c79 -14 339 -8 466 11 155 22 393 70
520 104 l100 27 -280 5 c-314 6 -323 8 -367 77 l-23 38 -3 1140 c-2 774 0
1152 8 1176 14 51 47 88 94 110 39 18 108 19 1764 19 1528 0 1727 -2 1759 -15
50 -21 72 -42 94 -90 17 -37 19 -76 19 -542 0 -277 3 -503 6 -503 8 0 315 188
397 242 l57 39 -2 887 -3 887 -27 52 c-36 67 -87 116 -157 151 l-56 27 -305 3
-305 3 0 -263 c-1 -301 -6 -324 -91 -437 -201 -268 -641 -231 -793 67 -44 86
-51 142 -51 394 l0 238 -574 0 -575 0 -3 -272 -3 -273 -32 -67 c-79 -166 -239
-268 -422 -268 -188 0 -357 103 -433 266 -37 79 -48 175 -48 422 l0 192 -252
-1 c-175 0 -265 -4 -293 -13z"/>
<path d="M4923 4686 c-38 -17 -63 -61 -63 -111 0 -74 41 -114 114 -115 41 0
53 5 81 33 42 42 51 77 34 124 -26 66 -101 98 -166 69z"/>
<path d="M4470 4588 c-12 -31 -123 -801 -124 -861 0 -77 48 -124 139 -135 29
-3 44 0 54 12 7 9 33 158 61 353 27 186 53 367 59 403 23 141 8 195 -64 230
-58 28 -113 27 -125 -2z"/>
<path d="M4070 4583 c-27 -10 -65 -37 -96 -68 -55 -54 -82 -119 -98 -227 l-7
-48 -165 0 c-94 0 -174 -4 -185 -10 -51 -28 -66 -134 -24 -175 24 -24 27 -25
186 -25 l161 0 -5 -22 c-3 -13 -9 -45 -12 -73 -12 -93 5 -85 -189 -85 -159 0
-175 -2 -199 -20 -45 -35 -48 -119 -7 -160 18 -18 34 -20 185 -20 156 0 165
-1 165 -19 0 -11 -11 -81 -25 -155 -14 -74 -25 -142 -25 -150 0 -9 11 -23 25
-32 36 -23 93 -5 151 48 71 65 78 94 151 628 l8 55 75 6 c41 3 85 10 96 17 50
27 71 135 34 172 -16 16 -33 20 -95 20 l-75 0 0 30 c0 17 9 48 20 69 23 46 62
63 126 54 54 -7 75 9 100 73 22 59 8 96 -47 118 -50 20 -169 20 -229 -1z"/>
<path d="M5255 4361 c-39 -17 -60 -51 -60 -100 0 -41 8 -58 78 -159 l78 -113
-120 -123 c-68 -70 -123 -134 -126 -149 -10 -37 12 -85 46 -102 67 -35 118
-11 236 116 41 43 78 79 82 79 3 0 24 -30 46 -66 56 -92 104 -134 154 -134 48
0 86 28 101 75 16 49 1 88 -76 202 -35 52 -64 97 -64 100 0 3 46 53 101 111
107 113 130 150 122 195 -8 39 -57 77 -100 77 -32 0 -47 -11 -138 -100 -55
-55 -104 -100 -107 -100 -3 0 -21 24 -39 52 -82 127 -144 167 -214 139z"/>
<path d="M4862 4349 c-12 -5 -25 -14 -27 -21 -11 -29 -85 -553 -85 -599 0 -42
5 -55 33 -86 29 -31 41 -37 88 -40 30 -2 60 0 67 5 9 6 29 116 58 321 45 309
45 313 27 348 -10 20 -29 44 -43 54 -31 21 -87 30 -118 18z"/>
<path d="M7035 3258 c-49 -37 -152 -112 -227 -165 l-138 -98 0 -61 c0 -79 -30
-139 -85 -168 -31 -16 -65 -21 -174 -25 l-136 -6 -130 -81 c-189 -118 -345
-208 -565 -328 l-195 -106 755 2 755 3 53 24 c67 30 145 114 166 179 14 41 16
106 14 473 l-3 426 -90 -69z"/>
</g>
</svg>
